<?xml version="1.0" encoding="UTF-8" ?>
<!DOCTYPE svg PUBLIC "-//W3C//DTD SVG 1.1//EN" "http://www.w3.org/Graphics/SVG/1.1/DTD/svg11.dtd">
<svg width="259pt" height="64pt" viewBox="0 0 259 64" version="1.1" xmlns="http://www.w3.org/2000/svg">
<g id="#ffffffff">
</g>
<g id="#0088cbff">
<path fill="#0088cb" opacity="1.00" d=" M 189.76 13.66 C 192.18 8.14 197.75 3.75 203.94 3.79 C 216.31 3.80 228.68 3.79 241.05 3.80 C 247.01 3.72 252.35 7.84 254.95 13.01 C 256.66 16.44 256.31 20.34 256.34 24.04 C 256.25 31.72 256.47 39.40 256.21 47.07 C 255.85 48.16 255.48 49.24 255.12 50.32 C 252.44 55.53 247.09 59.77 241.00 59.46 C 228.68 59.48 216.36 59.48 204.04 59.46 C 197.95 59.77 192.56 55.58 189.89 50.35 C 189.52 49.26 189.15 48.17 188.78 47.08 C 188.54 39.41 188.75 31.73 188.66 24.06 C 188.71 20.58 188.34 16.94 189.76 13.66 M 239.20 16.77 C 239.19 18.01 239.18 19.25 239.18 20.48 C 240.46 20.72 241.74 20.96 243.03 21.21 C 241.19 28.38 238.42 35.30 236.93 42.57 C 235.66 35.14 232.12 28.32 230.26 21.03 C 231.63 20.84 233.00 20.64 234.38 20.44 C 234.15 19.21 234.73 17.48 233.28 16.85 C 228.73 16.60 224.16 16.85 219.61 16.79 C 219.82 18.03 220.03 19.27 220.24 20.51 C 221.67 20.89 223.62 20.98 224.01 22.76 C 227.47 31.81 230.53 41.00 233.94 50.06 C 235.81 50.02 237.71 50.09 239.56 49.75 C 242.78 40.39 245.82 30.94 248.80 21.48 C 249.99 21.10 251.20 20.74 252.41 20.40 C 252.38 19.19 252.37 17.98 252.35 16.77 C 247.97 16.78 243.58 16.77 239.20 16.77 M 191.56 16.78 C 191.84 19.87 191.87 22.98 191.91 26.08 C 193.36 25.98 194.82 25.86 196.27 25.72 C 196.33 24.34 196.40 22.97 196.47 21.59 C 198.48 21.53 200.48 21.48 202.49 21.44 C 202.39 29.56 202.73 37.70 202.29 45.81 C 201.44 45.92 199.74 46.15 198.89 46.26 C 198.88 47.50 198.88 48.73 198.87 49.97 C 203.20 50.01 207.53 50.00 211.86 50.00 C 211.87 48.77 211.89 47.54 211.92 46.32 C 210.78 46.06 209.65 45.80 208.52 45.54 C 208.50 37.47 208.56 29.41 208.49 21.35 C 210.60 21.48 212.71 21.61 214.82 21.79 C 214.87 23.17 214.92 24.56 214.97 25.94 C 216.46 25.94 217.95 25.90 219.44 25.84 C 219.43 22.82 219.48 19.79 219.34 16.77 C 210.08 16.78 200.82 16.76 191.56 16.78 Z" />
</g>
<g id="#ed1c24ff">
<path fill="#ed1c24" opacity="1.00" d=" M 239.20 16.77 C 243.58 16.77 247.97 16.78 252.35 16.77 C 252.37 17.98 252.38 19.19 252.41 20.40 C 251.20 20.74 249.99 21.10 248.80 21.48 C 245.82 30.94 242.78 40.39 239.56 49.75 C 237.71 50.09 235.81 50.02 233.94 50.06 C 230.53 41.00 227.47 31.81 224.01 22.76 C 223.62 20.98 221.67 20.89 220.24 20.51 C 220.03 19.27 219.82 18.03 219.61 16.79 C 224.16 16.85 228.73 16.60 233.28 16.85 C 234.73 17.48 234.15 19.21 234.38 20.44 C 233.00 20.64 231.63 20.84 230.26 21.03 C 232.12 28.32 235.66 35.14 236.93 42.57 C 238.42 35.30 241.19 28.38 243.03 21.21 C 241.74 20.96 240.46 20.72 239.18 20.48 C 239.18 19.25 239.19 18.01 239.20 16.77 Z" />
<path fill="#ed1c24" opacity="1.00" d=" M 191.56 16.78 C 200.82 16.76 210.08 16.78 219.34 16.77 C 219.48 19.79 219.43 22.82 219.44 25.84 C 217.95 25.90 216.46 25.94 214.97 25.94 C 214.92 24.56 214.87 23.17 214.82 21.79 C 212.71 21.61 210.60 21.48 208.49 21.35 C 208.56 29.41 208.50 37.47 208.52 45.54 C 209.65 45.80 210.78 46.06 211.92 46.32 C 211.89 47.54 211.87 48.77 211.86 50.00 C 207.53 50.00 203.20 50.01 198.87 49.97 C 198.88 48.73 198.88 47.50 198.89 46.26 C 199.74 46.15 201.44 45.92 202.29 45.81 C 202.73 37.70 202.39 29.56 202.49 21.44 C 200.48 21.48 198.48 21.53 196.47 21.59 C 196.40 22.97 196.33 24.34 196.27 25.72 C 194.82 25.86 193.36 25.98 191.91 26.08 C 191.87 22.98 191.84 19.87 191.56 16.78 Z" />
</g>
<g id="#063bfbff">
<path fill="#063bfb" opacity="1.00" d=" M 17.18 16.87 C 18.96 16.95 20.75 17.01 22.54 17.08 C 25.65 26.09 28.95 35.04 32.18 44.00 C 32.51 45.78 34.35 46.06 35.80 46.50 C 35.88 47.64 35.97 48.78 36.06 49.92 C 31.64 50.04 27.23 50.00 22.81 50.00 C 22.80 49.14 22.78 47.42 22.77 46.56 C 24.03 46.29 25.29 46.01 26.54 45.74 C 26.01 43.83 25.45 41.94 24.89 40.04 C 21.28 39.98 17.66 39.99 14.05 40.04 C 13.56 41.93 13.08 43.82 12.65 45.73 C 13.86 46.01 15.08 46.30 16.29 46.58 C 16.28 47.43 16.25 49.15 16.23 50.00 C 12.12 50.00 8.02 50.00 3.91 50.00 C 3.92 48.85 3.93 47.71 3.94 46.57 C 5.08 45.98 6.93 46.08 7.31 44.55 C 10.72 35.37 13.86 26.09 17.18 16.87 M 15.74 35.49 C 18.18 35.52 20.63 35.53 23.07 35.54 C 21.90 31.75 20.49 28.03 19.40 24.22 C 18.36 28.03 16.99 31.74 15.74 35.49 Z" />
<path fill="#063bfb" opacity="1.00" d=" M 43.09 20.10 C 48.94 15.10 57.86 15.75 64.37 19.06 C 64.15 21.74 63.89 24.41 63.50 27.06 C 62.11 27.03 60.72 26.99 59.34 26.97 C 59.03 25.34 58.73 23.71 58.44 22.08 C 54.52 21.11 49.47 19.98 46.32 23.26 C 44.34 26.80 44.18 31.08 44.25 35.05 C 44.39 38.99 45.98 43.70 50.09 45.04 C 54.49 46.32 59.09 44.99 63.34 43.77 C 63.76 45.10 64.17 46.42 64.58 47.75 C 58.86 49.73 52.55 51.36 46.58 49.48 C 41.98 48.04 39.18 43.43 38.52 38.86 C 37.56 32.41 38.14 24.89 43.09 20.10 Z" />
<path fill="#063bfb" opacity="1.00" d=" M 80.17 16.88 C 81.96 16.94 83.75 17.01 85.55 17.09 C 88.64 26.09 91.95 35.01 95.17 43.96 C 95.51 45.81 97.44 46.09 98.92 46.59 C 98.98 47.70 99.05 48.81 99.11 49.92 C 94.68 50.04 90.24 50.00 85.81 49.99 C 85.80 49.14 85.78 47.42 85.77 46.56 C 87.03 46.29 88.28 46.01 89.54 45.74 C 89.01 43.84 88.44 41.94 87.88 40.04 C 84.27 39.98 80.66 39.99 77.05 40.04 C 76.56 41.93 76.09 43.83 75.65 45.73 C 76.87 46.01 78.08 46.30 79.30 46.58 C 79.28 47.43 79.25 49.14 79.23 50.00 C 75.12 50.00 71.02 50.00 66.91 50.00 C 66.92 48.85 66.93 47.71 66.94 46.57 C 68.08 45.98 69.94 46.09 70.31 44.55 C 73.72 35.37 76.86 26.09 80.17 16.88 M 78.74 35.49 C 81.20 35.52 83.66 35.53 86.12 35.52 C 84.87 31.76 83.50 28.05 82.41 24.24 C 81.35 28.04 79.99 31.75 78.74 35.49 Z" />
<path fill="#063bfb" opacity="1.00" d=" M 106.02 20.02 C 111.88 15.10 120.73 15.78 127.22 19.06 C 126.96 21.69 126.69 24.32 126.44 26.96 C 124.98 26.95 123.52 26.92 122.06 26.90 C 121.78 25.26 121.51 23.62 121.22 21.98 C 117.33 21.21 112.33 19.94 109.23 23.22 C 107.07 26.72 107.09 31.06 107.13 35.04 C 107.19 38.80 108.62 43.12 112.27 44.79 C 116.80 46.51 121.70 45.02 126.16 43.79 C 126.60 45.10 127.04 46.41 127.47 47.72 C 121.79 49.69 115.54 51.33 109.60 49.54 C 104.93 48.21 102.08 43.59 101.38 39.01 C 100.21 32.50 101.03 24.83 106.02 20.02 Z" />
<path fill="#063bfb" opacity="1.00" d=" M 131.81 16.94 C 136.06 16.93 140.31 16.94 144.56 16.92 C 144.57 17.80 144.58 19.56 144.59 20.44 C 143.45 20.69 142.31 20.94 141.18 21.19 C 141.11 29.36 141.12 37.53 141.17 45.71 C 142.31 45.95 143.45 46.19 144.60 46.44 C 144.59 47.33 144.57 49.11 144.56 50.00 C 140.30 50.00 136.05 50.00 131.79 50.00 C 131.79 48.80 131.80 47.60 131.80 46.40 C 132.67 46.23 134.41 45.89 135.28 45.73 C 135.36 37.56 135.36 29.39 135.28 21.23 C 134.10 20.95 132.93 20.67 131.76 20.39 C 131.78 19.53 131.80 17.80 131.81 16.94 Z" />
<path fill="#063bfb" opacity="1.00" d=" M 160.36 17.08 C 162.15 17.01 163.94 16.95 165.74 16.89 C 169.23 26.48 172.57 36.13 176.18 45.67 C 177.21 45.93 178.25 46.20 179.30 46.46 C 179.28 47.35 179.25 49.11 179.23 50.00 C 174.88 50.00 170.52 50.01 166.17 49.99 C 166.18 48.83 166.19 47.67 166.21 46.52 C 167.45 46.23 168.70 45.95 169.94 45.66 C 169.37 43.77 168.76 41.89 168.16 40.01 C 164.58 40.00 161.00 40.00 157.42 40.00 C 156.90 41.89 156.38 43.78 155.92 45.69 C 157.14 45.97 158.36 46.25 159.58 46.53 C 159.58 47.40 159.57 49.13 159.56 50.00 C 155.48 50.00 151.40 50.00 147.32 49.99 C 147.32 48.77 147.31 47.54 147.31 46.32 C 148.02 46.19 149.43 45.94 150.14 45.81 C 153.74 36.30 157.05 26.69 160.36 17.08 M 162.77 24.21 C 161.67 28.02 160.34 31.75 159.02 35.48 C 161.52 35.52 164.02 35.53 166.52 35.53 C 165.17 31.79 163.82 28.05 162.77 24.21 Z" />
</g>
</svg>
